<svg xmlns="http://www.w3.org/2000/svg" id="export" class="canvas" preserveAspectRatio="xMidYMid meet" style="" width="182" height="713"><rect id="background" fill="#fff" pointer-events="all" width="182" height="713"/><g id="origin" transform="translate(8.23984375, 8.239843750009095) scale(1)"><g id="clusters" class="clusters"/><g id="edge-paths" class="edge-paths" style="pointer-events: none;"><defs><marker id="arrowhead" viewBox="0 0 10 10" refX="9" refY="5" markerUnits="strokeWidth" markerWidth="8" markerHeight="6" orient="auto" style="fill: rgb(0, 0, 0);"><path d="M 0 0 L 10 5 L 0 10 L 4 5 z" style="stroke-width: 1;"/></marker><marker id="arrowhead-select" viewBox="0 0 10 10" refX="9" refY="5" markerUnits="strokeWidth" markerWidth="8" markerHeight="6" orient="auto" style="fill: rgba(220, 0, 0, 0.9);"><path d="M 0 0 L 10 5 L 0 10 L 4 5 z" style="stroke-width: 1;"/></marker><marker id="arrowhead-hover" viewBox="0 0 10 10" refX="9" refY="5" markerUnits="strokeWidth" markerWidth="8" markerHeight="6" orient="auto" style="fill: rgba(220, 0, 0, 0.9);"><path d="M 0 0 L 10 5 L 0 10 L 4 5 z" style="stroke-width: 1;"/></marker></defs></g><g id="edge-labels" class="edge-labels"/><g id="nodes" class="nodes"><g id="node-id-0" class="node graph-node" transform="translate(0,0)" style=""><g class="node-item node-item-type" transform="translate(0,0)"><path d="M5,0h154.796875a5,5 0 0 1 5,5v18a0,0 0 0 1 0,0h-164.796875a0,0 0 0 1 0,0v-18a5,5 0 0 1 5,-5z" style="stroke: rgb(0, 0, 0); fill: rgb(0, 0, 0); stroke-width: 0;"/><text x="6" y="16" style="font-family: -apple-system, BlinkMacSystemFont, &quot;Segoe WPC&quot;, &quot;Segoe UI&quot;, Ubuntu, &quot;Droid Sans&quot;, sans-serif, &quot;PingFang SC&quot;; font-size: 11px; text-rendering: geometricprecision; user-select: none; fill: rgb(255, 255, 255);">CNN_biLSTM_Model</text></g><g class="node-argument-list" transform="translate(0,23)"><path d="M0,0h164.796875a0,0 0 0 1 0,0v668a5,5 0 0 1 -5,5h-154.796875a5,5 0 0 1 -5,-5v-668a0,0 0 0 1 0,0z" style="stroke: rgb(0, 0, 0); fill: rgb(255, 255, 255); stroke-width: 0;"/><g class="node-argument"><rect rx="3" ry="3" x="3" y="3" width="158.796875" height="664" style="fill: transparent;"/><text xml:space="preserve" x="6" y="14" style="font-family: -apple-system, BlinkMacSystemFont, &quot;Segoe WPC&quot;, &quot;Segoe UI&quot;, Ubuntu, &quot;Droid Sans&quot;, sans-serif, &quot;PingFang SC&quot;; font-size: 9px; font-weight: normal; text-rendering: geometricprecision; user-select: none;"><tspan>_modules:</tspan></text><g id="node-name-conv1" class="node graph-node" transform="translate(6,19)" style=""><g class="node-item node-item-type node-item-type-layer" transform="translate(0,0)"><path d="M5,0h142.796875a5,5 0 0 1 5,5v18a0,0 0 0 1 0,0h-152.796875a0,0 0 0 1 0,0v-18a5,5 0 0 1 5,-5z" style="stroke: rgb(0, 0, 0); fill: rgb(51, 85, 136); stroke-width: 0;"/><text x="6" y="16" style="font-family: -apple-system, BlinkMacSystemFont, &quot;Segoe WPC&quot;, &quot;Segoe UI&quot;, Ubuntu, &quot;Droid Sans&quot;, sans-serif, &quot;PingFang SC&quot;; font-size: 11px; text-rendering: geometricprecision; user-select: none; fill: rgb(255, 255, 255);">Conv1d</text><title>conv1</title></g><g class="node-argument-list" transform="translate(0,23)"><path d="M0,0h152.796875a0,0 0 0 1 0,0v29a5,5 0 0 1 -5,5h-142.796875a5,5 0 0 1 -5,-5v-29a0,0 0 0 1 0,0z" style="stroke: rgb(0, 0, 0); fill: rgb(255, 255, 255); stroke-width: 0;"/><g class="node-argument"><rect rx="3" ry="3" x="3" y="3" width="146.796875" height="14" style="fill: transparent;"/><text xml:space="preserve" x="6" y="14" style="font-family: -apple-system, BlinkMacSystemFont, &quot;Segoe WPC&quot;, &quot;Segoe UI&quot;, Ubuntu, &quot;Droid Sans&quot;, sans-serif, &quot;PingFang SC&quot;; font-size: 9px; font-weight: normal; text-rendering: geometricprecision; user-select: none;"><title>float32[64,51,3]</title><tspan style="font-weight: bold;">weight</tspan><tspan>〈64×51×3〉</tspan></text></g><g class="node-argument"><rect rx="3" ry="3" x="3" y="17" width="146.796875" height="14" style="fill: transparent;"/><text xml:space="preserve" x="6" y="28" style="font-family: -apple-system, BlinkMacSystemFont, &quot;Segoe WPC&quot;, &quot;Segoe UI&quot;, Ubuntu, &quot;Droid Sans&quot;, sans-serif, &quot;PingFang SC&quot;; font-size: 9px; font-weight: normal; text-rendering: geometricprecision; user-select: none;"><title>float32[64]</title><tspan style="font-weight: bold;">bias</tspan><tspan>〈64〉</tspan></text></g><line class="node" x1="0" x2="152.796875" y1="0" y2="0" style="stroke: rgb(51, 51, 51); fill: none; stroke-width: 1px;"/></g><path class="node node-border" d="M5,0h142.796875a5,5 0 0 1 5,5v47a5,5 0 0 1 -5,5h-142.796875a5,5 0 0 1 -5,-5v-47a5,5 0 0 1 5,-5z" style="stroke: rgb(51, 51, 51); fill: none; stroke-width: 1px;"/></g><g id="node-name-conv2" class="node graph-node" transform="translate(6,80)" style=""><g class="node-item node-item-type node-item-type-layer" transform="translate(0,0)"><path d="M5,0h142.796875a5,5 0 0 1 5,5v18a0,0 0 0 1 0,0h-152.796875a0,0 0 0 1 0,0v-18a5,5 0 0 1 5,-5z" style="stroke: rgb(0, 0, 0); fill: rgb(51, 85, 136); stroke-width: 0;"/><text x="6" y="16" style="font-family: -apple-system, BlinkMacSystemFont, &quot;Segoe WPC&quot;, &quot;Segoe UI&quot;, Ubuntu, &quot;Droid Sans&quot;, sans-serif, &quot;PingFang SC&quot;; font-size: 11px; text-rendering: geometricprecision; user-select: none; fill: rgb(255, 255, 255);">Conv1d</text><title>conv2</title></g><g class="node-argument-list" transform="translate(0,23)"><path d="M0,0h152.796875a0,0 0 0 1 0,0v29a5,5 0 0 1 -5,5h-142.796875a5,5 0 0 1 -5,-5v-29a0,0 0 0 1 0,0z" style="stroke: rgb(0, 0, 0); fill: rgb(255, 255, 255); stroke-width: 0;"/><g class="node-argument"><rect rx="3" ry="3" x="3" y="3" width="146.796875" height="14" style="fill: transparent;"/><text xml:space="preserve" x="6" y="14" style="font-family: -apple-system, BlinkMacSystemFont, &quot;Segoe WPC&quot;, &quot;Segoe UI&quot;, Ubuntu, &quot;Droid Sans&quot;, sans-serif, &quot;PingFang SC&quot;; font-size: 9px; font-weight: normal; text-rendering: geometricprecision; user-select: none;"><title>float32[64,64,3]</title><tspan style="font-weight: bold;">weight</tspan><tspan>〈64×64×3〉</tspan></text></g><g class="node-argument"><rect rx="3" ry="3" x="3" y="17" width="146.796875" height="14" style="fill: transparent;"/><text xml:space="preserve" x="6" y="28" style="font-family: -apple-system, BlinkMacSystemFont, &quot;Segoe WPC&quot;, &quot;Segoe UI&quot;, Ubuntu, &quot;Droid Sans&quot;, sans-serif, &quot;PingFang SC&quot;; font-size: 9px; font-weight: normal; text-rendering: geometricprecision; user-select: none;"><title>float32[64]</title><tspan style="font-weight: bold;">bias</tspan><tspan>〈64〉</tspan></text></g><line class="node" x1="0" x2="152.796875" y1="0" y2="0" style="stroke: rgb(51, 51, 51); fill: none; stroke-width: 1px;"/></g><path class="node node-border" d="M5,0h142.796875a5,5 0 0 1 5,5v47a5,5 0 0 1 -5,5h-142.796875a5,5 0 0 1 -5,-5v-47a5,5 0 0 1 5,-5z" style="stroke: rgb(51, 51, 51); fill: none; stroke-width: 1px;"/></g><g id="node-name-bilstm1" class="node graph-node" transform="translate(6,141)" style=""><g class="node-item node-item-type node-item-type-layer" transform="translate(0,0)"><path d="M5,0h142.796875a5,5 0 0 1 5,5v18a0,0 0 0 1 0,0h-152.796875a0,0 0 0 1 0,0v-18a5,5 0 0 1 5,-5z" style="stroke: rgb(0, 0, 0); fill: rgb(51, 85, 136); stroke-width: 0;"/><text x="6" y="16" style="font-family: -apple-system, BlinkMacSystemFont, &quot;Segoe WPC&quot;, &quot;Segoe UI&quot;, Ubuntu, &quot;Droid Sans&quot;, sans-serif, &quot;PingFang SC&quot;; font-size: 11px; text-rendering: geometricprecision; user-select: none; fill: rgb(255, 255, 255);">LSTM</text><title>bilstm1</title></g><g class="node-argument-list" transform="translate(0,23)"><path d="M0,0h152.796875a0,0 0 0 1 0,0v127a5,5 0 0 1 -5,5h-142.796875a5,5 0 0 1 -5,-5v-127a0,0 0 0 1 0,0z" style="stroke: rgb(0, 0, 0); fill: rgb(255, 255, 255); stroke-width: 0;"/><g class="node-argument"><rect rx="3" ry="3" x="3" y="3" width="146.796875" height="14" style="fill: transparent;"/><text xml:space="preserve" x="6" y="14" style="font-family: -apple-system, BlinkMacSystemFont, &quot;Segoe WPC&quot;, &quot;Segoe UI&quot;, Ubuntu, &quot;Droid Sans&quot;, sans-serif, &quot;PingFang SC&quot;; font-size: 9px; font-weight: normal; text-rendering: geometricprecision; user-select: none;"><title>float32[256,64]</title><tspan style="font-weight: bold;">weight_ih_l0</tspan><tspan>〈256×64〉</tspan></text></g><g class="node-argument"><rect rx="3" ry="3" x="3" y="17" width="146.796875" height="14" style="fill: transparent;"/><text xml:space="preserve" x="6" y="28" style="font-family: -apple-system, BlinkMacSystemFont, &quot;Segoe WPC&quot;, &quot;Segoe UI&quot;, Ubuntu, &quot;Droid Sans&quot;, sans-serif, &quot;PingFang SC&quot;; font-size: 9px; font-weight: normal; text-rendering: geometricprecision; user-select: none;"><title>float32[256,64]</title><tspan style="font-weight: bold;">weight_hh_l0</tspan><tspan>〈256×64〉</tspan></text></g><g class="node-argument"><rect rx="3" ry="3" x="3" y="31" width="146.796875" height="14" style="fill: transparent;"/><text xml:space="preserve" x="6" y="42" style="font-family: -apple-system, BlinkMacSystemFont, &quot;Segoe WPC&quot;, &quot;Segoe UI&quot;, Ubuntu, &quot;Droid Sans&quot;, sans-serif, &quot;PingFang SC&quot;; font-size: 9px; font-weight: normal; text-rendering: geometricprecision; user-select: none;"><title>float32[256]</title><tspan style="font-weight: bold;">bias_ih_l0</tspan><tspan>〈256〉</tspan></text></g><g class="node-argument"><rect rx="3" ry="3" x="3" y="45" width="146.796875" height="14" style="fill: transparent;"/><text xml:space="preserve" x="6" y="56" style="font-family: -apple-system, BlinkMacSystemFont, &quot;Segoe WPC&quot;, &quot;Segoe UI&quot;, Ubuntu, &quot;Droid Sans&quot;, sans-serif, &quot;PingFang SC&quot;; font-size: 9px; font-weight: normal; text-rendering: geometricprecision; user-select: none;"><title>float32[256]</title><tspan style="font-weight: bold;">bias_hh_l0</tspan><tspan>〈256〉</tspan></text></g><g class="node-argument"><rect rx="3" ry="3" x="3" y="59" width="146.796875" height="14" style="fill: transparent;"/><text xml:space="preserve" x="6" y="70" style="font-family: -apple-system, BlinkMacSystemFont, &quot;Segoe WPC&quot;, &quot;Segoe UI&quot;, Ubuntu, &quot;Droid Sans&quot;, sans-serif, &quot;PingFang SC&quot;; font-size: 9px; font-weight: normal; text-rendering: geometricprecision; user-select: none;"><title>float32[256,64]</title><tspan style="font-weight: bold;">weight_ih_l0_reverse</tspan><tspan>〈256×64〉</tspan></text></g><g class="node-argument"><rect rx="3" ry="3" x="3" y="73" width="146.796875" height="14" style="fill: transparent;"/><text xml:space="preserve" x="6" y="84" style="font-family: -apple-system, BlinkMacSystemFont, &quot;Segoe WPC&quot;, &quot;Segoe UI&quot;, Ubuntu, &quot;Droid Sans&quot;, sans-serif, &quot;PingFang SC&quot;; font-size: 9px; font-weight: normal; text-rendering: geometricprecision; user-select: none;"><title>float32[256,64]</title><tspan style="font-weight: bold;">weight_hh_l0_reverse</tspan><tspan>〈256×64〉</tspan></text></g><g class="node-argument"><rect rx="3" ry="3" x="3" y="87" width="146.796875" height="14" style="fill: transparent;"/><text xml:space="preserve" x="6" y="98" style="font-family: -apple-system, BlinkMacSystemFont, &quot;Segoe WPC&quot;, &quot;Segoe UI&quot;, Ubuntu, &quot;Droid Sans&quot;, sans-serif, &quot;PingFang SC&quot;; font-size: 9px; font-weight: normal; text-rendering: geometricprecision; user-select: none;"><title>float32[256]</title><tspan style="font-weight: bold;">bias_ih_l0_reverse</tspan><tspan>〈256〉</tspan></text></g><g class="node-argument"><rect rx="3" ry="3" x="3" y="101" width="146.796875" height="14" style="fill: transparent;"/><text xml:space="preserve" x="6" y="112" style="font-family: -apple-system, BlinkMacSystemFont, &quot;Segoe WPC&quot;, &quot;Segoe UI&quot;, Ubuntu, &quot;Droid Sans&quot;, sans-serif, &quot;PingFang SC&quot;; font-size: 9px; font-weight: normal; text-rendering: geometricprecision; user-select: none;"><title>float32[256]</title><tspan style="font-weight: bold;">bias_hh_l0_reverse</tspan><tspan>〈256〉</tspan></text></g><g class="node-argument"><rect rx="3" ry="3" x="3" y="115" width="146.796875" height="14" style="fill: transparent;"/><text xml:space="preserve" x="6" y="126" style="font-family: -apple-system, BlinkMacSystemFont, &quot;Segoe WPC&quot;, &quot;Segoe UI&quot;, Ubuntu, &quot;Droid Sans&quot;, sans-serif, &quot;PingFang SC&quot;; font-size: 9px; font-weight: normal; text-rendering: geometricprecision; user-select: none;"><tspan style="font-weight: bold;">〈…〉</tspan><tspan/></text></g><line class="node" x1="0" x2="152.796875" y1="0" y2="0" style="stroke: rgb(51, 51, 51); fill: none; stroke-width: 1px;"/></g><path class="node node-border" d="M5,0h142.796875a5,5 0 0 1 5,5v145a5,5 0 0 1 -5,5h-142.796875a5,5 0 0 1 -5,-5v-145a5,5 0 0 1 5,-5z" style="stroke: rgb(51, 51, 51); fill: none; stroke-width: 1px;"/></g><g id="node-name-bilstm2" class="node graph-node" transform="translate(6,300)" style=""><g class="node-item node-item-type node-item-type-layer" transform="translate(0,0)"><path d="M5,0h142.796875a5,5 0 0 1 5,5v18a0,0 0 0 1 0,0h-152.796875a0,0 0 0 1 0,0v-18a5,5 0 0 1 5,-5z" style="stroke: rgb(0, 0, 0); fill: rgb(51, 85, 136); stroke-width: 0;"/><text x="6" y="16" style="font-family: -apple-system, BlinkMacSystemFont, &quot;Segoe WPC&quot;, &quot;Segoe UI&quot;, Ubuntu, &quot;Droid Sans&quot;, sans-serif, &quot;PingFang SC&quot;; font-size: 11px; text-rendering: geometricprecision; user-select: none; fill: rgb(255, 255, 255);">LSTM</text><title>bilstm2</title></g><g class="node-argument-list" transform="translate(0,23)"><path d="M0,0h152.796875a0,0 0 0 1 0,0v127a5,5 0 0 1 -5,5h-142.796875a5,5 0 0 1 -5,-5v-127a0,0 0 0 1 0,0z" style="stroke: rgb(0, 0, 0); fill: rgb(255, 255, 255); stroke-width: 0;"/><g class="node-argument"><rect rx="3" ry="3" x="3" y="3" width="146.796875" height="14" style="fill: transparent;"/><text xml:space="preserve" x="6" y="14" style="font-family: -apple-system, BlinkMacSystemFont, &quot;Segoe WPC&quot;, &quot;Segoe UI&quot;, Ubuntu, &quot;Droid Sans&quot;, sans-serif, &quot;PingFang SC&quot;; font-size: 9px; font-weight: normal; text-rendering: geometricprecision; user-select: none;"><title>float32[128,128]</title><tspan style="font-weight: bold;">weight_ih_l0</tspan><tspan>〈128×128〉</tspan></text></g><g class="node-argument"><rect rx="3" ry="3" x="3" y="17" width="146.796875" height="14" style="fill: transparent;"/><text xml:space="preserve" x="6" y="28" style="font-family: -apple-system, BlinkMacSystemFont, &quot;Segoe WPC&quot;, &quot;Segoe UI&quot;, Ubuntu, &quot;Droid Sans&quot;, sans-serif, &quot;PingFang SC&quot;; font-size: 9px; font-weight: normal; text-rendering: geometricprecision; user-select: none;"><title>float32[128,32]</title><tspan style="font-weight: bold;">weight_hh_l0</tspan><tspan>〈128×32〉</tspan></text></g><g class="node-argument"><rect rx="3" ry="3" x="3" y="31" width="146.796875" height="14" style="fill: transparent;"/><text xml:space="preserve" x="6" y="42" style="font-family: -apple-system, BlinkMacSystemFont, &quot;Segoe WPC&quot;, &quot;Segoe UI&quot;, Ubuntu, &quot;Droid Sans&quot;, sans-serif, &quot;PingFang SC&quot;; font-size: 9px; font-weight: normal; text-rendering: geometricprecision; user-select: none;"><title>float32[128]</title><tspan style="font-weight: bold;">bias_ih_l0</tspan><tspan>〈128〉</tspan></text></g><g class="node-argument"><rect rx="3" ry="3" x="3" y="45" width="146.796875" height="14" style="fill: transparent;"/><text xml:space="preserve" x="6" y="56" style="font-family: -apple-system, BlinkMacSystemFont, &quot;Segoe WPC&quot;, &quot;Segoe UI&quot;, Ubuntu, &quot;Droid Sans&quot;, sans-serif, &quot;PingFang SC&quot;; font-size: 9px; font-weight: normal; text-rendering: geometricprecision; user-select: none;"><title>float32[128]</title><tspan style="font-weight: bold;">bias_hh_l0</tspan><tspan>〈128〉</tspan></text></g><g class="node-argument"><rect rx="3" ry="3" x="3" y="59" width="146.796875" height="14" style="fill: transparent;"/><text xml:space="preserve" x="6" y="70" style="font-family: -apple-system, BlinkMacSystemFont, &quot;Segoe WPC&quot;, &quot;Segoe UI&quot;, Ubuntu, &quot;Droid Sans&quot;, sans-serif, &quot;PingFang SC&quot;; font-size: 9px; font-weight: normal; text-rendering: geometricprecision; user-select: none;"><title>float32[128,128]</title><tspan style="font-weight: bold;">weight_ih_l0_reverse</tspan><tspan>〈128×128〉</tspan></text></g><g class="node-argument"><rect rx="3" ry="3" x="3" y="73" width="146.796875" height="14" style="fill: transparent;"/><text xml:space="preserve" x="6" y="84" style="font-family: -apple-system, BlinkMacSystemFont, &quot;Segoe WPC&quot;, &quot;Segoe UI&quot;, Ubuntu, &quot;Droid Sans&quot;, sans-serif, &quot;PingFang SC&quot;; font-size: 9px; font-weight: normal; text-rendering: geometricprecision; user-select: none;"><title>float32[128,32]</title><tspan style="font-weight: bold;">weight_hh_l0_reverse</tspan><tspan>〈128×32〉</tspan></text></g><g class="node-argument"><rect rx="3" ry="3" x="3" y="87" width="146.796875" height="14" style="fill: transparent;"/><text xml:space="preserve" x="6" y="98" style="font-family: -apple-system, BlinkMacSystemFont, &quot;Segoe WPC&quot;, &quot;Segoe UI&quot;, Ubuntu, &quot;Droid Sans&quot;, sans-serif, &quot;PingFang SC&quot;; font-size: 9px; font-weight: normal; text-rendering: geometricprecision; user-select: none;"><title>float32[128]</title><tspan style="font-weight: bold;">bias_ih_l0_reverse</tspan><tspan>〈128〉</tspan></text></g><g class="node-argument"><rect rx="3" ry="3" x="3" y="101" width="146.796875" height="14" style="fill: transparent;"/><text xml:space="preserve" x="6" y="112" style="font-family: -apple-system, BlinkMacSystemFont, &quot;Segoe WPC&quot;, &quot;Segoe UI&quot;, Ubuntu, &quot;Droid Sans&quot;, sans-serif, &quot;PingFang SC&quot;; font-size: 9px; font-weight: normal; text-rendering: geometricprecision; user-select: none;"><title>float32[128]</title><tspan style="font-weight: bold;">bias_hh_l0_reverse</tspan><tspan>〈128〉</tspan></text></g><g class="node-argument"><rect rx="3" ry="3" x="3" y="115" width="146.796875" height="14" style="fill: transparent;"/><text xml:space="preserve" x="6" y="126" style="font-family: -apple-system, BlinkMacSystemFont, &quot;Segoe WPC&quot;, &quot;Segoe UI&quot;, Ubuntu, &quot;Droid Sans&quot;, sans-serif, &quot;PingFang SC&quot;; font-size: 9px; font-weight: normal; text-rendering: geometricprecision; user-select: none;"><tspan style="font-weight: bold;">〈…〉</tspan><tspan/></text></g><line class="node" x1="0" x2="152.796875" y1="0" y2="0" style="stroke: rgb(51, 51, 51); fill: none; stroke-width: 1px;"/></g><path class="node node-border" d="M5,0h142.796875a5,5 0 0 1 5,5v145a5,5 0 0 1 -5,5h-142.796875a5,5 0 0 1 -5,-5v-145a5,5 0 0 1 5,-5z" style="stroke: rgb(51, 51, 51); fill: none; stroke-width: 1px;"/></g><g id="node-name-fc1" class="node graph-node" transform="translate(6,459)" style=""><g class="node-item node-item-type node-item-type-layer" transform="translate(0,0)"><path d="M5,0h142.796875a5,5 0 0 1 5,5v18a0,0 0 0 1 0,0h-152.796875a0,0 0 0 1 0,0v-18a5,5 0 0 1 5,-5z" style="stroke: rgb(0, 0, 0); fill: rgb(51, 85, 136); stroke-width: 0;"/><text x="6" y="16" style="font-family: -apple-system, BlinkMacSystemFont, &quot;Segoe WPC&quot;, &quot;Segoe UI&quot;, Ubuntu, &quot;Droid Sans&quot;, sans-serif, &quot;PingFang SC&quot;; font-size: 11px; text-rendering: geometricprecision; user-select: none; fill: rgb(255, 255, 255);">Linear</text><title>fc1</title></g><g class="node-argument-list" transform="translate(0,23)"><path d="M0,0h152.796875a0,0 0 0 1 0,0v29a5,5 0 0 1 -5,5h-142.796875a5,5 0 0 1 -5,-5v-29a0,0 0 0 1 0,0z" style="stroke: rgb(0, 0, 0); fill: rgb(255, 255, 255); stroke-width: 0;"/><g class="node-argument"><rect rx="3" ry="3" x="3" y="3" width="146.796875" height="14" style="fill: transparent;"/><text xml:space="preserve" x="6" y="14" style="font-family: -apple-system, BlinkMacSystemFont, &quot;Segoe WPC&quot;, &quot;Segoe UI&quot;, Ubuntu, &quot;Droid Sans&quot;, sans-serif, &quot;PingFang SC&quot;; font-size: 9px; font-weight: normal; text-rendering: geometricprecision; user-select: none;"><title>float32[100,64]</title><tspan style="font-weight: bold;">weight</tspan><tspan>〈100×64〉</tspan></text></g><g class="node-argument"><rect rx="3" ry="3" x="3" y="17" width="146.796875" height="14" style="fill: transparent;"/><text xml:space="preserve" x="6" y="28" style="font-family: -apple-system, BlinkMacSystemFont, &quot;Segoe WPC&quot;, &quot;Segoe UI&quot;, Ubuntu, &quot;Droid Sans&quot;, sans-serif, &quot;PingFang SC&quot;; font-size: 9px; font-weight: normal; text-rendering: geometricprecision; user-select: none;"><title>float32[100]</title><tspan style="font-weight: bold;">bias</tspan><tspan>〈100〉</tspan></text></g><line class="node" x1="0" x2="152.796875" y1="0" y2="0" style="stroke: rgb(51, 51, 51); fill: none; stroke-width: 1px;"/></g><path class="node node-border" d="M5,0h142.796875a5,5 0 0 1 5,5v47a5,5 0 0 1 -5,5h-142.796875a5,5 0 0 1 -5,-5v-47a5,5 0 0 1 5,-5z" style="stroke: rgb(51, 51, 51); fill: none; stroke-width: 1px;"/></g><g id="node-name-fc2" class="node graph-node" transform="translate(6,520)" style=""><g class="node-item node-item-type node-item-type-layer" transform="translate(0,0)"><path d="M5,0h142.796875a5,5 0 0 1 5,5v18a0,0 0 0 1 0,0h-152.796875a0,0 0 0 1 0,0v-18a5,5 0 0 1 5,-5z" style="stroke: rgb(0, 0, 0); fill: rgb(51, 85, 136); stroke-width: 0;"/><text x="6" y="16" style="font-family: -apple-system, BlinkMacSystemFont, &quot;Segoe WPC&quot;, &quot;Segoe UI&quot;, Ubuntu, &quot;Droid Sans&quot;, sans-serif, &quot;PingFang SC&quot;; font-size: 11px; text-rendering: geometricprecision; user-select: none; fill: rgb(255, 255, 255);">Linear</text><title>fc2</title></g><g class="node-argument-list" transform="translate(0,23)"><path d="M0,0h152.796875a0,0 0 0 1 0,0v29a5,5 0 0 1 -5,5h-142.796875a5,5 0 0 1 -5,-5v-29a0,0 0 0 1 0,0z" style="stroke: rgb(0, 0, 0); fill: rgb(255, 255, 255); stroke-width: 0;"/><g class="node-argument"><rect rx="3" ry="3" x="3" y="3" width="146.796875" height="14" style="fill: transparent;"/><text xml:space="preserve" x="6" y="14" style="font-family: -apple-system, BlinkMacSystemFont, &quot;Segoe WPC&quot;, &quot;Segoe UI&quot;, Ubuntu, &quot;Droid Sans&quot;, sans-serif, &quot;PingFang SC&quot;; font-size: 9px; font-weight: normal; text-rendering: geometricprecision; user-select: none;"><title>float32[20,100]</title><tspan style="font-weight: bold;">weight</tspan><tspan>〈20×100〉</tspan></text></g><g class="node-argument"><rect rx="3" ry="3" x="3" y="17" width="146.796875" height="14" style="fill: transparent;"/><text xml:space="preserve" x="6" y="28" style="font-family: -apple-system, BlinkMacSystemFont, &quot;Segoe WPC&quot;, &quot;Segoe UI&quot;, Ubuntu, &quot;Droid Sans&quot;, sans-serif, &quot;PingFang SC&quot;; font-size: 9px; font-weight: normal; text-rendering: geometricprecision; user-select: none;"><title>float32[20]</title><tspan style="font-weight: bold;">bias</tspan><tspan>〈20〉</tspan></text></g><line class="node" x1="0" x2="152.796875" y1="0" y2="0" style="stroke: rgb(51, 51, 51); fill: none; stroke-width: 1px;"/></g><path class="node node-border" d="M5,0h142.796875a5,5 0 0 1 5,5v47a5,5 0 0 1 -5,5h-142.796875a5,5 0 0 1 -5,-5v-47a5,5 0 0 1 5,-5z" style="stroke: rgb(51, 51, 51); fill: none; stroke-width: 1px;"/></g><g id="node-name-fc3" class="node graph-node" transform="translate(6,581)" style=""><g class="node-item node-item-type node-item-type-layer" transform="translate(0,0)"><path d="M5,0h142.796875a5,5 0 0 1 5,5v18a0,0 0 0 1 0,0h-152.796875a0,0 0 0 1 0,0v-18a5,5 0 0 1 5,-5z" style="stroke: rgb(0, 0, 0); fill: rgb(51, 85, 136); stroke-width: 0;"/><text x="6" y="16" style="font-family: -apple-system, BlinkMacSystemFont, &quot;Segoe WPC&quot;, &quot;Segoe UI&quot;, Ubuntu, &quot;Droid Sans&quot;, sans-serif, &quot;PingFang SC&quot;; font-size: 11px; text-rendering: geometricprecision; user-select: none; fill: rgb(255, 255, 255);">Linear</text><title>fc3</title></g><g class="node-argument-list" transform="translate(0,23)"><path d="M0,0h152.796875a0,0 0 0 1 0,0v29a5,5 0 0 1 -5,5h-142.796875a5,5 0 0 1 -5,-5v-29a0,0 0 0 1 0,0z" style="stroke: rgb(0, 0, 0); fill: rgb(255, 255, 255); stroke-width: 0;"/><g class="node-argument"><rect rx="3" ry="3" x="3" y="3" width="146.796875" height="14" style="fill: transparent;"/><text xml:space="preserve" x="6" y="14" style="font-family: -apple-system, BlinkMacSystemFont, &quot;Segoe WPC&quot;, &quot;Segoe UI&quot;, Ubuntu, &quot;Droid Sans&quot;, sans-serif, &quot;PingFang SC&quot;; font-size: 9px; font-weight: normal; text-rendering: geometricprecision; user-select: none;"><title>float32[1,20]</title><tspan style="font-weight: bold;">weight</tspan><tspan>〈1×20〉</tspan></text></g><g class="node-argument"><rect rx="3" ry="3" x="3" y="17" width="146.796875" height="14" style="fill: transparent;"/><text xml:space="preserve" x="6" y="28" style="font-family: -apple-system, BlinkMacSystemFont, &quot;Segoe WPC&quot;, &quot;Segoe UI&quot;, Ubuntu, &quot;Droid Sans&quot;, sans-serif, &quot;PingFang SC&quot;; font-size: 9px; font-weight: normal; text-rendering: geometricprecision; user-select: none;"><title>float32[1]</title><tspan style="font-weight: bold;">bias</tspan><tspan>〈1〉</tspan></text></g><line class="node" x1="0" x2="152.796875" y1="0" y2="0" style="stroke: rgb(51, 51, 51); fill: none; stroke-width: 1px;"/></g><path class="node node-border" d="M5,0h142.796875a5,5 0 0 1 5,5v47a5,5 0 0 1 -5,5h-142.796875a5,5 0 0 1 -5,-5v-47a5,5 0 0 1 5,-5z" style="stroke: rgb(51, 51, 51); fill: none; stroke-width: 1px;"/></g><g id="node-name-dropout" class="node graph-node" transform="translate(6,642)" style=""><g class="node-item node-item-type node-item-type-dropout" transform="translate(0,0)"><path d="M5,0h142.796875a5,5 0 0 1 5,5v13a5,5 0 0 1 -5,5h-142.796875a5,5 0 0 1 -5,-5v-13a5,5 0 0 1 5,-5z" style="stroke: rgb(0, 0, 0); fill: rgb(69, 71, 112); stroke-width: 0;"/><text x="6" y="16" style="font-family: -apple-system, BlinkMacSystemFont, &quot;Segoe WPC&quot;, &quot;Segoe UI&quot;, Ubuntu, &quot;Droid Sans&quot;, sans-serif, &quot;PingFang SC&quot;; font-size: 11px; text-rendering: geometricprecision; user-select: none; fill: rgb(255, 255, 255);">Dropout</text><title>dropout</title></g><path class="node node-border" d="M5,0h142.796875a5,5 0 0 1 5,5v13a5,5 0 0 1 -5,5h-142.796875a5,5 0 0 1 -5,-5v-13a5,5 0 0 1 5,-5z" style="stroke: rgb(51, 51, 51); fill: none; stroke-width: 1px;"/></g></g><line class="node" x1="0" x2="164.796875" y1="0" y2="0" style="stroke: rgb(51, 51, 51); fill: none; stroke-width: 1px;"/></g><path class="node node-border" d="M5,0h154.796875a5,5 0 0 1 5,5v686a5,5 0 0 1 -5,5h-154.796875a5,5 0 0 1 -5,-5v-686a5,5 0 0 1 5,-5z" style="stroke: rgb(51, 51, 51); fill: none; stroke-width: 1px;"/></g></g></g></svg>